<?xml version="1.0" encoding="UTF-8" standalone="no"?>
<!DOCTYPE svg PUBLIC "-//W3C//DTD SVG 1.1//EN" "http://www.w3.org/Graphics/SVG/1.1/DTD/svg11.dtd">
<!-- Created with Vectornator (http://vectornator.io/) -->
<svg height="100%" stroke-miterlimit="10" style="fill-rule:nonzero;clip-rule:evenodd;stroke-linecap:round;stroke-linejoin:round;" version="1.1" viewBox="356.712 417.572 220 220" width="100%" xml:space="preserve" xmlns="http://www.w3.org/2000/svg" xmlns:vectornator="http://vectornator.io" xmlns:xlink="http://www.w3.org/1999/xlink">
<defs/>
<g id="Capa-1" vectornator:layerName="Capa 1">
<path d="M356.712 527.572C356.712 466.821 405.96 417.572 466.712 417.572C527.463 417.572 576.712 466.821 576.712 527.572C576.712 588.323 527.463 637.572 466.712 637.572C405.96 637.572 356.712 588.323 356.712 527.572Z" fill="#195076" fill-rule="nonzero" opacity="1" stroke="none" vectornator:layerName="Óvalo 1"/>
<g fill="#ffffff" opacity="1" stroke="none" vectornator:layerName="Texto 1">
<path d="M409.476 486.795L409.476 473.483L398.596 473.483L398.596 486.795L409.476 486.795ZM409.476 573.195L409.476 498.699L398.596 498.699L398.596 571.403C398.596 574.817 398.169 577.185 397.316 578.507C396.462 579.83 394.841 580.491 392.452 580.491L390.148 580.491C389.806 580.491 389.486 580.47 389.188 580.427C388.889 580.385 388.526 580.321 388.1 580.235L388.1 589.579C389.806 589.921 391.641 590.091 393.604 590.091C398.468 590.091 402.329 588.747 405.188 586.059C408.046 583.371 409.476 579.083 409.476 573.195Z"/>
<path d="M434.308 531.851C434.308 527.841 434.841 524.278 435.908 521.163C436.974 518.049 438.446 515.425 440.324 513.291C442.201 511.158 444.398 509.537 446.916 508.427C449.433 507.318 452.1 506.763 454.916 506.763C457.732 506.763 460.398 507.318 462.916 508.427C465.433 509.537 467.63 511.158 469.508 513.291C471.385 515.425 472.857 518.049 473.924 521.163C474.99 524.278 475.524 527.841 475.524 531.851C475.524 535.862 474.99 539.425 473.924 542.539C472.857 545.654 471.385 548.257 469.508 550.347C467.63 552.438 465.433 554.038 462.916 555.147C460.398 556.257 457.732 556.811 454.916 556.811C452.1 556.811 449.433 556.257 446.916 555.147C444.398 554.038 442.201 552.438 440.324 550.347C438.446 548.257 436.974 545.654 435.908 542.539C434.841 539.425 434.308 535.862 434.308 531.851ZM422.788 531.851C422.788 536.715 423.47 541.238 424.836 545.419C426.201 549.601 428.249 553.249 430.98 556.363C433.71 559.478 437.081 561.91 441.092 563.659C445.102 565.409 449.71 566.283 454.916 566.283C460.206 566.283 464.836 565.409 468.804 563.659C472.772 561.91 476.121 559.478 478.852 556.363C481.582 553.249 483.63 549.601 484.996 545.419C486.361 541.238 487.044 536.715 487.044 531.851C487.044 526.987 486.361 522.443 484.996 518.219C483.63 513.995 481.582 510.326 478.852 507.211C476.121 504.097 472.772 501.643 468.804 499.851C464.836 498.059 460.206 497.163 454.916 497.163C449.71 497.163 445.102 498.059 441.092 499.851C437.081 501.643 433.71 504.097 430.98 507.211C428.249 510.326 426.201 513.995 424.836 518.219C423.47 522.443 422.788 526.987 422.788 531.851Z"/>
<path d="M545.796 525.451L507.78 525.451C507.95 522.891 508.505 520.481 509.444 518.219C510.382 515.958 511.662 513.974 513.284 512.267C514.905 510.561 516.846 509.217 519.108 508.235C521.369 507.254 523.908 506.763 526.724 506.763C529.454 506.763 531.95 507.254 534.212 508.235C536.473 509.217 538.436 510.539 540.1 512.203C541.764 513.867 543.086 515.851 544.068 518.155C545.049 520.459 545.625 522.891 545.796 525.451ZM556.292 543.883L545.54 543.883C544.601 548.235 542.66 551.478 539.716 553.611C536.772 555.745 532.996 556.811 528.388 556.811C524.804 556.811 521.689 556.214 519.044 555.019C516.398 553.825 514.222 552.225 512.516 550.219C510.809 548.214 509.572 545.91 508.804 543.307C508.036 540.705 507.694 537.953 507.78 535.051L557.316 535.051C557.486 531.041 557.124 526.817 556.228 522.379C555.332 517.942 553.71 513.846 551.364 510.091C549.017 506.337 545.902 503.243 542.02 500.811C538.137 498.379 533.252 497.163 527.364 497.163C522.841 497.163 518.681 498.017 514.884 499.723C511.086 501.43 507.801 503.819 505.028 506.891C502.254 509.963 500.1 513.59 498.564 517.771C497.028 521.953 496.26 526.561 496.26 531.595C496.43 536.63 497.177 541.281 498.5 545.547C499.822 549.814 501.806 553.483 504.452 556.555C507.097 559.627 510.361 562.017 514.244 563.723C518.126 565.43 522.713 566.283 528.004 566.283C535.513 566.283 541.742 564.406 546.692 560.651C551.641 556.897 554.841 551.307 556.292 543.883Z"/>
</g>
</g>
</svg>
