<?xml version="1.0" encoding="UTF-8" standalone="no"?>
<!DOCTYPE svg PUBLIC "-//W3C//DTD SVG 1.1//EN" "http://www.w3.org/Graphics/SVG/1.1/DTD/svg11.dtd">
<!-- Created with Vectornator (http://vectornator.io/) -->
<svg height="100%" stroke-miterlimit="10" style="fill-rule:nonzero;clip-rule:evenodd;stroke-linecap:round;stroke-linejoin:round;" version="1.1" viewBox="309.618 457.735 97.7461 17.6719" width="100%" xml:space="preserve" xmlns="http://www.w3.org/2000/svg" xmlns:vectornator="http://vectornator.io" xmlns:xlink="http://www.w3.org/1999/xlink">
<defs/>
<g id="Capa-1" vectornator:layerName="Capa 1">
<g fill="#3395ff" opacity="1" stroke="none" vectornator:layerName="Texto 1"/>
<path d="M309.618 467.849L323.317 462.481L323.317 464.591L312.114 468.821L323.317 473.063L323.317 475.173L309.618 469.794L309.618 467.849Z" fill="#07beb8" opacity="1" stroke="none" vectornator:layerName="Texto 2"/>
<g fill="#000000" opacity="1" stroke="none" vectornator:layerName="Texto 3">
<path d="M343.251 469.817C343.251 471.27 343.036 472.399 342.606 473.204C341.809 474.673 340.294 475.407 338.059 475.407C336.77 475.407 335.669 475.058 334.755 474.358C333.841 473.659 333.384 472.415 333.384 470.626L333.384 469.395L335.575 469.395L335.575 470.626C335.575 471.563 335.784 472.268 336.202 472.741C336.62 473.214 337.27 473.45 338.153 473.45C339.395 473.45 340.208 473.024 340.591 472.173C340.825 471.649 340.942 470.661 340.942 469.208L340.942 457.735L343.251 457.735L343.251 469.817Z"/>
<path d="M351.501 473.591C352.899 473.591 353.858 473.061 354.378 472.003C354.897 470.944 355.157 469.767 355.157 468.47C355.157 467.298 354.969 466.345 354.594 465.61C354.001 464.454 352.977 463.876 351.524 463.876C350.235 463.876 349.298 464.368 348.712 465.352C348.126 466.337 347.833 467.524 347.833 468.915C347.833 470.251 348.126 471.364 348.712 472.255C349.298 473.145 350.227 473.591 351.501 473.591ZM351.583 462.036C353.2 462.036 354.567 462.575 355.684 463.653C356.801 464.731 357.36 466.317 357.36 468.411C357.36 470.434 356.868 472.106 355.884 473.427C354.899 474.747 353.372 475.407 351.301 475.407C349.575 475.407 348.204 474.823 347.188 473.655C346.173 472.487 345.665 470.919 345.665 468.95C345.665 466.841 346.2 465.161 347.27 463.911C348.341 462.661 349.778 462.036 351.583 462.036Z"/>
<path d="M365.094 462.118C365.985 462.118 366.848 462.327 367.684 462.745C368.52 463.163 369.157 463.704 369.594 464.368C370.016 465.001 370.298 465.739 370.438 466.583C370.563 467.161 370.626 468.083 370.626 469.349L361.426 469.349C361.466 470.622 361.766 471.643 362.329 472.413C362.891 473.183 363.762 473.567 364.942 473.567C366.044 473.567 366.923 473.204 367.579 472.477C367.954 472.056 368.219 471.567 368.376 471.013L370.45 471.013C370.395 471.474 370.214 471.987 369.905 472.554C369.596 473.12 369.251 473.583 368.868 473.942C368.227 474.567 367.434 474.989 366.489 475.208C365.981 475.333 365.407 475.395 364.766 475.395C363.204 475.395 361.88 474.827 360.794 473.69C359.708 472.554 359.165 470.962 359.165 468.915C359.165 466.899 359.712 465.263 360.805 464.005C361.899 462.747 363.329 462.118 365.094 462.118ZM368.458 467.673C368.372 466.759 368.173 466.028 367.86 465.481C367.282 464.466 366.317 463.958 364.966 463.958C363.997 463.958 363.184 464.308 362.528 465.007C361.872 465.706 361.524 466.595 361.485 467.673L368.458 467.673Z"/>
<path d="M373.274 457.735L375.384 457.735L375.384 474.95L373.274 474.95L373.274 457.735Z"/>
</g>
<g fill="#07beb8" opacity="1" stroke="none" vectornator:layerName="Texto 4">
<path d="M392.13 457.735L393.911 457.735L388.45 474.95L386.669 474.95L392.13 457.735Z"/>
<path d="M407.364 469.817L393.665 475.173L393.665 473.063L404.856 468.821L393.665 464.591L393.665 462.481L407.364 467.849L407.364 469.817Z"/>
</g>
</g>
</svg>
