<?xml version="1.0" encoding="UTF-8" standalone="no"?>
<!DOCTYPE svg PUBLIC "-//W3C//DTD SVG 1.1//EN" "http://www.w3.org/Graphics/SVG/1.1/DTD/svg11.dtd">
<!-- Created with Vectornator (http://vectornator.io/) -->
<svg height="100%" stroke-miterlimit="10" style="fill-rule:nonzero;clip-rule:evenodd;stroke-linecap:round;stroke-linejoin:round;" version="1.1" viewBox="356.712 417.572 492.979 220" width="100%" xml:space="preserve" xmlns="http://www.w3.org/2000/svg" xmlns:vectornator="http://vectornator.io" xmlns:xlink="http://www.w3.org/1999/xlink">
<defs/>
<g id="Capa-1" vectornator:layerName="Capa 1">
<path d="M356.712 527.572C356.712 466.821 405.96 417.572 466.712 417.572C527.463 417.572 576.712 466.821 576.712 527.572C576.712 588.323 527.463 637.572 466.712 637.572C405.96 637.572 356.712 588.323 356.712 527.572Z" fill="#195076" fill-rule="nonzero" opacity="1" stroke="none" vectornator:layerName="Óvalo 1"/>
<g fill="#ffffff" opacity="1" stroke="none" vectornator:layerName="Texto 1">
<path d="M409.476 486.795L409.476 473.483L398.596 473.483L398.596 486.795L409.476 486.795ZM409.476 573.195L409.476 498.699L398.596 498.699L398.596 571.403C398.596 574.817 398.169 577.185 397.316 578.507C396.462 579.83 394.841 580.491 392.452 580.491L390.148 580.491C389.806 580.491 389.486 580.47 389.188 580.427C388.889 580.385 388.526 580.321 388.1 580.235L388.1 589.579C389.806 589.921 391.641 590.091 393.604 590.091C398.468 590.091 402.329 588.747 405.188 586.059C408.046 583.371 409.476 579.083 409.476 573.195Z"/>
<path d="M434.308 531.851C434.308 527.841 434.841 524.278 435.908 521.163C436.974 518.049 438.446 515.425 440.324 513.291C442.201 511.158 444.398 509.537 446.916 508.427C449.433 507.318 452.1 506.763 454.916 506.763C457.732 506.763 460.398 507.318 462.916 508.427C465.433 509.537 467.63 511.158 469.508 513.291C471.385 515.425 472.857 518.049 473.924 521.163C474.99 524.278 475.524 527.841 475.524 531.851C475.524 535.862 474.99 539.425 473.924 542.539C472.857 545.654 471.385 548.257 469.508 550.347C467.63 552.438 465.433 554.038 462.916 555.147C460.398 556.257 457.732 556.811 454.916 556.811C452.1 556.811 449.433 556.257 446.916 555.147C444.398 554.038 442.201 552.438 440.324 550.347C438.446 548.257 436.974 545.654 435.908 542.539C434.841 539.425 434.308 535.862 434.308 531.851ZM422.788 531.851C422.788 536.715 423.47 541.238 424.836 545.419C426.201 549.601 428.249 553.249 430.98 556.363C433.71 559.478 437.081 561.91 441.092 563.659C445.102 565.409 449.71 566.283 454.916 566.283C460.206 566.283 464.836 565.409 468.804 563.659C472.772 561.91 476.121 559.478 478.852 556.363C481.582 553.249 483.63 549.601 484.996 545.419C486.361 541.238 487.044 536.715 487.044 531.851C487.044 526.987 486.361 522.443 484.996 518.219C483.63 513.995 481.582 510.326 478.852 507.211C476.121 504.097 472.772 501.643 468.804 499.851C464.836 498.059 460.206 497.163 454.916 497.163C449.71 497.163 445.102 498.059 441.092 499.851C437.081 501.643 433.71 504.097 430.98 507.211C428.249 510.326 426.201 513.995 424.836 518.219C423.47 522.443 422.788 526.987 422.788 531.851Z"/>
<path d="M545.796 525.451L507.78 525.451C507.95 522.891 508.505 520.481 509.444 518.219C510.382 515.958 511.662 513.974 513.284 512.267C514.905 510.561 516.846 509.217 519.108 508.235C521.369 507.254 523.908 506.763 526.724 506.763C529.454 506.763 531.95 507.254 534.212 508.235C536.473 509.217 538.436 510.539 540.1 512.203C541.764 513.867 543.086 515.851 544.068 518.155C545.049 520.459 545.625 522.891 545.796 525.451ZM556.292 543.883L545.54 543.883C544.601 548.235 542.66 551.478 539.716 553.611C536.772 555.745 532.996 556.811 528.388 556.811C524.804 556.811 521.689 556.214 519.044 555.019C516.398 553.825 514.222 552.225 512.516 550.219C510.809 548.214 509.572 545.91 508.804 543.307C508.036 540.705 507.694 537.953 507.78 535.051L557.316 535.051C557.486 531.041 557.124 526.817 556.228 522.379C555.332 517.942 553.71 513.846 551.364 510.091C549.017 506.337 545.902 503.243 542.02 500.811C538.137 498.379 533.252 497.163 527.364 497.163C522.841 497.163 518.681 498.017 514.884 499.723C511.086 501.43 507.801 503.819 505.028 506.891C502.254 509.963 500.1 513.59 498.564 517.771C497.028 521.953 496.26 526.561 496.26 531.595C496.43 536.63 497.177 541.281 498.5 545.547C499.822 549.814 501.806 553.483 504.452 556.555C507.097 559.627 510.361 562.017 514.244 563.723C518.126 565.43 522.713 566.283 528.004 566.283C535.513 566.283 541.742 564.406 546.692 560.651C551.641 556.897 554.841 551.307 556.292 543.883Z"/>
</g>
<g fill="#195076" opacity="1" stroke="none" vectornator:layerName="Texto 2">
<path d="M620.698 491.92L620.698 573.072L632.858 573.072L632.858 491.92L663.322 491.92L663.322 481.68L590.234 481.68L590.234 491.92L620.698 491.92Z"/>
<path d="M703.386 533.648L665.37 533.648C665.541 531.088 666.096 528.677 667.034 526.416C667.973 524.155 669.253 522.171 670.874 520.464C672.496 518.757 674.437 517.413 676.698 516.432C678.96 515.451 681.498 514.96 684.314 514.96C687.045 514.96 689.541 515.451 691.802 516.432C694.064 517.413 696.026 518.736 697.69 520.4C699.354 522.064 700.677 524.048 701.658 526.352C702.64 528.656 703.216 531.088 703.386 533.648ZM713.882 552.08L703.13 552.08C702.192 556.432 700.25 559.675 697.306 561.808C694.362 563.941 690.586 565.008 685.978 565.008C682.394 565.008 679.28 564.411 676.634 563.216C673.989 562.021 671.813 560.421 670.106 558.416C668.4 556.411 667.162 554.107 666.394 551.504C665.626 548.901 665.285 546.149 665.37 543.248L714.906 543.248C715.077 539.237 714.714 535.013 713.818 530.576C712.922 526.139 711.301 522.043 708.954 518.288C706.608 514.533 703.493 511.44 699.61 509.008C695.728 506.576 690.842 505.36 684.954 505.36C680.432 505.36 676.272 506.213 672.474 507.92C668.677 509.627 665.392 512.016 662.618 515.088C659.845 518.16 657.69 521.787 656.154 525.968C654.618 530.149 653.85 534.757 653.85 539.792C654.021 544.827 654.768 549.477 656.09 553.744C657.413 558.011 659.397 561.68 662.042 564.752C664.688 567.824 667.952 570.213 671.834 571.92C675.717 573.627 680.304 574.48 685.594 574.48C693.104 574.48 699.333 572.603 704.282 568.848C709.232 565.093 712.432 559.504 713.882 552.08Z"/>
<path d="M771.098 528.144L782.362 528.144C781.936 524.219 780.912 520.827 779.29 517.968C777.669 515.109 775.6 512.741 773.082 510.864C770.565 508.987 767.664 507.6 764.378 506.704C761.093 505.808 757.573 505.36 753.818 505.36C748.613 505.36 744.048 506.277 740.122 508.112C736.197 509.947 732.933 512.464 730.33 515.664C727.728 518.864 725.786 522.619 724.506 526.928C723.226 531.237 722.586 535.867 722.586 540.816C722.586 545.765 723.248 550.309 724.57 554.448C725.893 558.587 727.856 562.149 730.458 565.136C733.061 568.123 736.304 570.427 740.186 572.048C744.069 573.669 748.528 574.48 753.562 574.48C762.01 574.48 768.688 572.261 773.594 567.824C778.501 563.387 781.552 557.072 782.746 548.88L771.61 548.88C770.928 554 769.072 557.968 766.042 560.784C763.013 563.6 758.81 565.008 753.434 565.008C750.021 565.008 747.077 564.325 744.602 562.96C742.128 561.595 740.122 559.781 738.586 557.52C737.05 555.259 735.92 552.677 735.194 549.776C734.469 546.875 734.106 543.888 734.106 540.816C734.106 537.488 734.448 534.267 735.13 531.152C735.813 528.037 736.944 525.285 738.522 522.896C740.101 520.507 742.213 518.587 744.858 517.136C747.504 515.685 750.789 514.96 754.714 514.96C759.322 514.96 762.992 516.112 765.722 518.416C768.453 520.72 770.245 523.963 771.098 528.144Z"/>
<path d="M794.906 481.68L794.906 573.072L805.786 573.072L805.786 535.696C805.786 532.709 806.192 529.957 807.002 527.44C807.813 524.923 809.029 522.725 810.65 520.848C812.272 518.971 814.298 517.52 816.73 516.496C819.162 515.472 822.042 514.96 825.37 514.96C829.552 514.96 832.837 516.155 835.226 518.544C837.616 520.933 838.81 524.176 838.81 528.272L838.81 573.072L849.69 573.072L849.69 529.552C849.69 525.968 849.328 522.704 848.602 519.76C847.877 516.816 846.618 514.277 844.826 512.144C843.034 510.011 840.688 508.347 837.786 507.152C834.885 505.957 831.258 505.36 826.906 505.36C824.944 505.36 822.917 505.573 820.826 506C818.736 506.427 816.73 507.088 814.81 507.984C812.89 508.88 811.162 510.032 809.626 511.44C808.09 512.848 806.896 514.576 806.042 516.624L805.786 516.624L805.786 481.68L794.906 481.68Z"/>
</g>
</g>
</svg>
