<?xml version="1.0" encoding="UTF-8" standalone="no"?>
<!DOCTYPE svg PUBLIC "-//W3C//DTD SVG 1.1//EN" "http://www.w3.org/Graphics/SVG/1.1/DTD/svg11.dtd">
<!-- Created with Vectornator (http://vectornator.io/) -->
<svg height="100%" stroke-miterlimit="10" style="fill-rule:nonzero;clip-rule:evenodd;stroke-linecap:round;stroke-linejoin:round;" version="1.1" viewBox="309.618 457.677 107.099 17.7188" width="100%" xml:space="preserve" xmlns="http://www.w3.org/2000/svg" xmlns:vectornator="http://vectornator.io" xmlns:xlink="http://www.w3.org/1999/xlink">
<defs/>
<g id="Capa-1" vectornator:layerName="Capa 1">
<path d="M309.618 467.849L323.317 462.481L323.317 464.591L312.114 468.821L323.317 473.063L323.317 475.173L309.618 469.794L309.618 467.849Z" fill="#ed9f31" opacity="1" stroke="none" vectornator:layerName="Texto 2"/>
<g fill="#000000" opacity="1" stroke="none" vectornator:layerName="Texto 3">
<path d="M344.098 469.759L344.098 457.677L347.708 457.677L347.708 469.7C347.708 471.169 347.454 472.333 346.946 473.192C346.086 474.645 344.536 475.372 342.294 475.372C340.051 475.372 338.547 474.784 337.782 473.608C337.016 472.433 336.633 470.829 336.633 468.798L336.633 468.399L340.044 468.399L340.044 468.798C340.075 470.134 340.221 471.073 340.483 471.616C340.745 472.159 341.305 472.431 342.165 472.431C343.016 472.431 343.579 472.134 343.852 471.54C344.016 471.188 344.098 470.595 344.098 469.759Z"/>
<path d="M361.665 463.794C362.743 465.145 363.282 466.743 363.282 468.587C363.282 470.462 362.743 472.065 361.665 473.397C360.586 474.729 358.95 475.395 356.754 475.395C354.559 475.395 352.922 474.729 351.844 473.397C350.766 472.065 350.227 470.462 350.227 468.587C350.227 466.743 350.766 465.145 351.844 463.794C352.922 462.442 354.559 461.767 356.754 461.767C358.95 461.767 360.586 462.442 361.665 463.794ZM356.743 464.591C355.766 464.591 355.014 464.936 354.487 465.628C353.96 466.319 353.696 467.306 353.696 468.587C353.696 469.868 353.96 470.856 354.487 471.552C355.014 472.247 355.766 472.595 356.743 472.595C357.719 472.595 358.469 472.247 358.993 471.552C359.516 470.856 359.778 469.868 359.778 468.587C359.778 467.306 359.516 466.319 358.993 465.628C358.469 464.936 357.719 464.591 356.743 464.591Z"/>
<path d="M376.606 471.2C376.52 471.958 376.126 472.727 375.422 473.509C374.329 474.751 372.797 475.372 370.829 475.372C369.204 475.372 367.77 474.849 366.528 473.802C365.286 472.755 364.665 471.052 364.665 468.692C364.665 466.481 365.225 464.786 366.346 463.606C367.467 462.427 368.922 461.837 370.711 461.837C371.774 461.837 372.731 462.036 373.583 462.434C374.434 462.833 375.137 463.462 375.692 464.321C376.192 465.079 376.516 465.958 376.665 466.958C376.751 467.544 376.786 468.388 376.77 469.489L368.028 469.489C368.075 470.77 368.477 471.669 369.235 472.184C369.696 472.505 370.251 472.665 370.899 472.665C371.586 472.665 372.145 472.47 372.575 472.079C372.809 471.868 373.016 471.575 373.196 471.2L376.606 471.2ZM373.301 467.286C373.247 466.403 372.979 465.733 372.499 465.276C372.018 464.819 371.422 464.591 370.711 464.591C369.938 464.591 369.338 464.833 368.913 465.317C368.487 465.802 368.219 466.458 368.11 467.286L373.301 467.286Z"/>
<path d="M379.09 457.677L382.43 457.677L382.43 474.95L379.09 474.95L379.09 457.677Z"/>
</g>
<g fill="#ed9f31" opacity="1" stroke="none" vectornator:layerName="Texto 4">
<path d="M401.483 457.735L403.264 457.735L397.803 474.95L396.022 474.95L401.483 457.735Z"/>
<path d="M416.717 469.817L403.018 475.173L403.018 473.063L414.209 468.821L403.018 464.591L403.018 462.481L416.717 467.849L416.717 469.817Z"/>
</g>
</g>
</svg>
